<svg width="192" height="50" viewBox="0 0 192 50" fill="none" xmlns="http://www.w3.org/2000/svg">
<g clip-path="url(#clip0_1665_3027)">
<path d="M165.796 40.5265L165.412 16.8923L173.678 16.7644L173.651 15L155.057 15.2911C154.484 15.2828 153.915 15.3863 153.382 15.5955C152.99 15.7524 152.641 15.9988 152.364 16.3145C152.12 16.6048 151.949 16.9478 151.864 17.3158C151.779 17.695 151.74 18.083 151.748 18.4715L151.802 21.7929H152.985C152.958 20.0285 153.347 18.8243 154.155 18.1186C155.087 17.3729 156.261 16.9873 157.459 17.0335L160.268 16.9894L160.648 42.2644C159.546 42.6055 158.43 42.9275 157.299 43.2304C150.047 45.1889 142.563 46.7195 136.155 45.3433V30.5841H139.914C140.307 30.5841 140.808 30.5576 141.437 30.5047C142.86 30.3714 144.247 29.9875 145.532 29.371C146.248 29.0279 146.902 28.572 147.47 28.0213C148.069 27.4342 148.547 26.7375 148.877 25.9702C149.251 25.0514 149.432 24.0668 149.408 23.0765C149.434 22.0303 149.254 20.989 148.877 20.0109C148.547 19.2053 148.055 18.4744 147.43 17.8627C146.838 17.2865 146.149 16.8163 145.394 16.4733C144.649 16.1372 143.875 15.8685 143.081 15.6705C142.314 15.4808 141.533 15.3568 140.745 15.2999C139.977 15.2514 139.307 15.225 138.727 15.225H127.849V16.3939H128.242C129.43 16.3939 130.189 16.7556 130.519 17.4702C130.879 18.3704 131.047 19.3347 131.01 20.302V43.4201C127.746 41.5939 124.946 38.5944 122.834 33.9717L114.872 15.225H113.086L103.391 36.6536C102.436 38.7885 101.681 40.8485 99.2606 39.0885C99.016 38.8358 98.8126 38.5471 98.6578 38.2327C98.1011 37.1065 97.8227 35.42 97.8227 33.1733V15.0044H90.736L79.6616 33.2086L66.5866 15.0044H60V39.4766H62.6793V19.3051L77.1788 39.4766H78.965L90.794 20.0462V33.1733C90.794 35.964 91.641 37.9901 93.3349 39.2517C95.0288 40.5132 97.7572 41.1425 101.52 41.1396H101.761C103.704 41.1396 104.49 38.6121 105.16 37.1697L106.664 33.8879H117.239L118.154 36.0934C118.19 36.1816 118.23 36.2654 118.266 36.3492C122.584 46.6136 133.627 49 141.397 49C161.845 49 183.395 35.8552 192 26.3407C187.057 30.5355 177.465 36.2831 165.796 40.5265ZM136.155 17.0599C136.39 17.0335 136.653 16.9938 136.945 16.9408C137.219 16.8869 137.497 16.8486 137.776 16.8262C138.091 16.7997 138.408 16.7865 138.727 16.7865C139.356 16.7867 139.982 16.8789 140.584 17.0599C141.205 17.2484 141.769 17.5846 142.228 18.0392C142.756 18.5717 143.162 19.2113 143.415 19.9139C143.744 20.8688 143.895 21.8744 143.862 22.8825C143.894 23.8976 143.743 24.9104 143.415 25.8731C143.163 26.5869 142.751 27.2352 142.21 27.7698C141.724 28.2283 141.132 28.5629 140.486 28.7447C139.851 28.9271 139.192 29.0192 138.53 29.0182H136.155V17.0599ZM107.504 32.1456L112.117 21.9473L116.493 32.1456H107.504Z" fill="white"/>
<path d="M49.2517 15.655C47.9853 12.4572 46.0335 9.5651 43.529 7.17546C41.0257 4.80908 38.0714 2.9528 34.8361 1.71337C31.6468 0.492603 28.2409 -0.0864698 24.82 0.0104306C21.3991 0.107331 18.0327 0.878235 14.9201 2.27751C10.3819 4.30683 6.54945 7.60203 3.89825 11.7542C1.24706 15.9064 -0.106164 20.7328 0.00650429 25.6346C0.150857 32.0492 2.81162 38.1605 7.43219 42.69C9.71626 44.9135 12.4059 46.6938 15.3603 47.9378C21.3928 50.4962 28.1934 50.6809 34.3603 48.4538C37.5107 47.3199 40.4009 45.5821 42.8633 43.3413C45.3256 41.1005 47.3112 38.4011 48.7047 35.3999C50.1168 32.3274 50.8937 29.0094 50.9902 25.639C51.0846 22.2309 50.4937 18.838 49.2517 15.655ZM28.3753 27.8299C28.3359 27.9884 28.3472 28.1549 28.4077 28.3067C28.4682 28.4586 28.5749 28.5884 28.7132 28.6783C26.4144 30.6156 25.3516 31.1273 25.3516 30.7993C25.1604 30.5632 25.734 27.4538 25.7963 26.8416C25.9875 26.7454 26.1787 26.7017 26.4188 26.6054C26.9134 26.7801 27.4291 26.8904 27.9529 26.9334C27.893 27.1076 27.9034 27.2978 27.982 27.4646C28.0607 27.6315 28.2014 27.7622 28.3753 27.8299ZM21.3898 28.8664C21.9207 28.7918 22.4097 28.5407 22.7754 28.1548C23.141 27.7689 23.3613 27.2715 23.3996 26.7454C23.5545 26.8616 23.7337 26.9422 23.9243 26.9815C23.8309 27.6419 23.4797 30.0428 22.6348 30.0428C22.2391 29.9946 21.6299 29.1506 21.3898 28.8664ZM39.7717 40.3984C36.7207 43.7297 32.6585 46.0041 28.1885 46.8838C27.1302 43.7351 25.9742 39.7643 26.2721 36.7774C26.5566 36.2614 27.7528 34.8926 28.4242 34.9888C28.505 34.8694 28.557 34.7335 28.5764 34.5914C28.5959 34.4492 28.5821 34.3046 28.5363 34.1685C28.4904 34.0324 28.4137 33.9083 28.3118 33.8057C28.21 33.7031 28.0857 33.6246 27.9484 33.5763C27.641 34.0545 27.1667 34.406 26.6145 34.5646C27.1881 32.5879 28.9622 29.9509 30.972 29.1944C31.5456 30.0428 33.1241 29.8547 33.6399 29.2425C34.6493 30.2789 36.7036 29.4786 36.8014 28.1142C38.7134 28.7702 40.6299 27.1696 39.7672 25.4291C41.3502 24.5544 41.1012 22.1798 39.7228 21.6157C40.2475 20.155 38.3888 18.5063 36.8503 18.7425C36.7654 18.5966 36.6503 18.47 36.5124 18.3708C37.2816 16.8139 36.5124 13.8926 34.5515 13.5603C34.1068 11.7236 31.7769 10.7833 30.1494 11.6317C29.1445 10.6871 27.5616 10.5953 26.7968 11.8198C25.5073 10.5472 22.826 11.2994 22.2035 12.8562C21.3472 12.6793 20.4544 12.8419 19.7193 13.3086C18.9841 13.7753 18.4659 14.5085 18.2772 15.3489C17.3879 14.2687 16.0273 14.2206 14.8312 14.881C13.3461 14.5967 11.7186 15.537 11.6742 17.1419C9.94891 16.9058 8.61051 17.7541 8.32149 19.4466C6.74298 19.7308 5.54686 23.8197 8.70389 24.7206C7.4144 26.4174 8.7528 28.9626 10.7626 28.3941C11.3851 30.0909 14.0664 30.4188 15.4048 29.1506C16.0273 30.7512 18.8508 30.7512 19.9047 29.8066C22.0923 33.8168 22.2035 42.2876 20.2737 46.9538C18.9047 46.7103 17.5641 46.3324 16.2719 45.8255C13.5503 44.7593 11.0803 43.1548 9.01514 41.1112C6.9602 39.0739 5.34228 36.6513 4.25737 33.9873C3.19954 31.3281 2.68578 28.4896 2.74556 25.6346C2.81872 22.8294 3.46504 20.0674 4.64603 17.513C5.82702 14.9586 7.51854 12.664 9.61987 10.7658C13.7245 7.02736 19.1699 5.04397 24.7603 5.25126C30.1807 5.45403 35.3087 7.72166 39.0602 11.5749C40.8932 13.4591 42.385 15.6377 43.4712 18.0165C44.5718 20.4164 45.188 23.0037 45.2854 25.6346C45.4563 31.0717 43.4803 36.3628 39.7717 40.3984Z" fill="#C2A561"/>
</g>
<defs>
<clipPath id="clip0_1665_3027">
<rect width="192" height="50" fill="white"/>
</clipPath>
</defs>
</svg>
