<svg width="230" height="60" viewBox="0 0 230 60" fill="none" xmlns="http://www.w3.org/2000/svg">
<g clip-path="url(#clip0_136_488)">
<path d="M198.635 48.0311L198.176 20.2263L208.069 20.0758L208.037 18L185.78 18.3425C185.094 18.3328 184.413 18.4544 183.776 18.7006C183.307 18.8852 182.889 19.175 182.557 19.5464C182.265 19.8879 182.06 20.2915 181.959 20.7244C181.856 21.1706 181.81 21.6271 181.82 22.0841L181.884 25.9917H183.3C183.268 23.9159 183.733 22.4992 184.701 21.6689C185.816 20.7917 187.222 20.338 188.656 20.3923L192.018 20.3404L192.472 50.0758C191.154 50.4771 189.818 50.8559 188.464 51.2122C179.783 53.5163 170.825 55.3171 163.155 53.698V36.3342H167.655C168.126 36.3342 168.724 36.3031 169.478 36.2408C171.181 36.084 172.841 35.6323 174.379 34.9071C175.236 34.5034 176.02 33.9671 176.699 33.3191C177.416 32.6284 177.988 31.8088 178.383 30.9061C178.831 29.8252 179.048 28.6668 179.019 27.5018C179.05 26.2709 178.834 25.0458 178.383 23.8952C177.988 22.9474 177.399 22.0876 176.651 21.3679C175.942 20.6899 175.118 20.1368 174.214 19.7333C173.322 19.3379 172.395 19.0218 171.445 18.7888C170.528 18.5656 169.592 18.4198 168.649 18.3529C167.73 18.2958 166.928 18.2647 166.233 18.2647H153.213V19.6399H153.683C155.105 19.6399 156.014 20.0654 156.409 20.9061C156.84 21.9652 157.041 23.0996 156.997 24.2377V51.4354C153.09 49.287 149.739 45.7582 147.21 40.3197L137.68 18.2647H135.542L123.938 43.4748C122.794 45.9865 121.891 48.41 118.994 46.3394C118.701 46.0421 118.458 45.7025 118.272 45.3326C117.606 44.0076 117.273 42.0235 117.273 39.3804V18.0052H108.79L95.5343 39.4219L79.884 18.0052H72V46.7961H75.207V23.0649L92.5625 46.7961H94.7005L108.86 23.9367V39.3804C108.86 42.6636 109.873 45.0472 111.901 46.5314C113.928 48.0156 117.194 48.7559 121.698 48.7525H121.987C124.312 48.7525 125.253 45.7789 126.055 44.082L127.856 40.2211H140.513L141.609 42.8158C141.651 42.9196 141.7 43.0182 141.742 43.1168C146.911 55.1925 160.129 58 169.43 58C193.905 58 219.7 42.5355 230 31.342C224.083 36.2771 212.602 43.0389 198.635 48.0311ZM163.155 20.4235C163.436 20.3923 163.752 20.3456 164.101 20.2833C164.429 20.2199 164.761 20.1749 165.095 20.1484C165.473 20.1173 165.852 20.1017 166.233 20.1017C166.987 20.102 167.736 20.2105 168.457 20.4235C169.2 20.6451 169.875 21.0407 170.424 21.5755C171.057 22.202 171.542 22.9545 171.846 23.781C172.239 24.9045 172.42 26.0876 172.38 27.2735C172.419 28.4678 172.238 29.6593 171.846 30.7919C171.544 31.6316 171.05 32.3943 170.403 33.0234C169.821 33.5627 169.113 33.9563 168.339 34.1702C167.579 34.3848 166.79 34.4932 165.998 34.492H163.155V20.4235ZM128.861 38.1712L134.382 26.1733L139.62 38.1712H128.861Z" fill="#69645E"/>
<path d="M58.9089 18.786C57.3941 14.9486 55.0596 11.4781 52.0641 8.61055C49.07 5.7709 45.5364 3.54336 41.6667 2.05604C37.852 0.591123 33.7783 -0.103764 29.6866 0.0125168C25.595 0.128797 21.5685 1.05388 17.8456 2.73301C12.4176 5.1682 7.83365 9.12244 4.66261 14.1051C1.49158 19.0877 -0.12698 24.8794 0.00777964 30.7615C0.180437 38.459 3.36291 45.7926 8.88948 51.2279C11.6214 53.8962 14.8384 56.0326 18.3722 57.5253C25.5875 60.5955 33.7216 60.8171 41.0976 58.1445C44.8657 56.7838 48.3226 54.6985 51.2678 52.0095C54.213 49.3206 56.5878 46.0814 58.2547 42.4799C59.9436 38.7928 60.8728 34.8113 60.9883 30.7668C61.1011 26.6771 60.3945 22.6056 58.9089 18.786ZM33.9391 33.3959C33.8919 33.586 33.9055 33.7859 33.9778 33.9681C34.0502 34.1503 34.1778 34.3061 34.3432 34.414C31.5936 36.7388 30.3226 37.3528 30.3226 36.9592C30.0939 36.6758 30.7799 32.9446 30.8544 32.2099C31.0831 32.0945 31.3118 32.042 31.599 31.9265C32.1905 32.1362 32.8074 32.2685 33.4338 32.3201C33.3622 32.5292 33.3747 32.7574 33.4687 32.9576C33.5628 33.1578 33.7311 33.3147 33.9391 33.3959ZM25.5839 34.6396C26.2189 34.5501 26.8038 34.2488 27.2411 33.7857C27.6785 33.3227 27.942 32.7258 27.9878 32.0945C28.173 32.2339 28.3874 32.3307 28.6154 32.3778C28.5037 33.1703 28.0835 36.0513 27.073 36.0513C26.5997 35.9936 25.8711 34.9808 25.5839 34.6396ZM47.5701 48.4781C43.9209 52.4756 39.0622 55.2049 33.7157 56.2606C32.4499 52.4822 31.0671 47.7172 31.4235 44.1329C31.7638 43.5137 33.1945 41.8711 33.9976 41.9866C34.0942 41.8433 34.1564 41.6802 34.1797 41.5096C34.2029 41.3391 34.1865 41.1656 34.1316 41.0022C34.0768 40.8389 33.985 40.69 33.8631 40.5668C33.7413 40.4437 33.5927 40.3495 33.4285 40.2915C33.0608 40.8655 32.4935 41.2872 31.833 41.4775C32.519 39.1055 34.6411 35.9411 37.045 35.0332C37.7311 36.0513 39.6191 35.8256 40.236 35.091C41.4433 36.3347 43.9004 35.3743 44.0174 33.737C46.3043 34.5242 48.5965 32.6035 47.5647 30.5149C49.4581 29.4653 49.1603 26.6158 47.5116 25.9388C48.1391 24.186 45.916 22.2076 44.0759 22.491C43.9743 22.316 43.8366 22.164 43.6717 22.0449C44.5918 20.1767 43.6717 16.6712 41.3263 16.2723C40.7944 14.0683 38.0076 12.94 36.0611 13.9581C34.8591 12.8245 32.9658 12.7143 32.051 14.1837C30.5087 12.6566 27.3017 13.5592 26.5571 15.4274C25.5329 15.2151 24.4651 15.4102 23.5858 15.9703C22.7065 16.5304 22.0866 17.4102 21.861 18.4187C20.7973 17.1225 19.1699 17.0648 17.7393 17.8572C15.9629 17.5161 14.0164 18.6443 13.9632 20.5703C11.8997 20.2869 10.2988 21.305 9.95315 23.3359C8.06513 23.677 6.63448 28.5837 10.4105 29.6647C8.8682 31.7009 10.469 34.7551 12.8729 34.0729C13.6175 36.109 16.8245 36.5026 18.4253 34.9808C19.1699 36.9014 22.5471 36.9014 23.8075 35.7679C26.4242 40.5802 26.5571 50.7451 24.249 56.3445C22.6116 56.0524 21.008 55.5988 19.4624 54.9906C16.2072 53.7112 13.2529 51.7857 10.7828 49.3335C8.32494 46.8887 6.38978 43.9816 5.09215 40.7848C3.8269 37.5937 3.2124 34.1875 3.2839 30.7615C3.37142 27.3953 4.14446 24.0809 5.55702 21.0156C6.96957 17.9503 8.99276 15.1968 11.5061 12.919C16.4155 8.43284 22.9287 6.05277 29.6152 6.30152C36.0985 6.54484 42.2319 9.26599 46.7191 13.8898C48.9115 16.1509 50.6958 18.7652 51.995 21.6198C53.3114 24.4997 54.0484 27.6044 54.1649 30.7615C54.3693 37.286 52.0059 43.6353 47.5701 48.4781Z" fill="#C2A561"/>
</g>
<defs>
<clipPath id="clip0_136_488">
<rect width="230" height="60" fill="white"/>
</clipPath>
</defs>
</svg>
