<svg width="18" height="18" viewBox="0 0 18 18" fill="none" xmlns="http://www.w3.org/2000/svg">
<path d="M1 -1.74846e-07L17 -2.97237e-06C17.2652 -3.01875e-06 17.5196 0.105354 17.7071 0.29289C17.8946 0.480426 18 0.73478 18 0.999997L18 17C18 17.2652 17.8946 17.5196 17.7071 17.7071C17.5196 17.8946 17.2652 18 17 18L1 18C0.734787 18 0.480433 17.8946 0.292896 17.7071C0.10536 17.5196 3.01875e-06 17.2652 2.97237e-06 17L1.74846e-07 1C1.28474e-07 0.734784 0.105357 0.48043 0.292893 0.292893C0.48043 0.105357 0.734784 -1.28474e-07 1 -1.74846e-07ZM2 2L2 16L16 16L16 2L2 2ZM8.003 13L3.76 8.757L5.174 7.343L8.003 10.172L13.659 4.515L15.074 5.929L8.003 13Z" fill="#C2A561"/>
</svg>
