<svg width="24" height="24" viewBox="0 0 24 24" fill="none" xmlns="http://www.w3.org/2000/svg" id="error">
<g clip-path="url(#clip0_1641_5150)">
<path d="M12.3639 3.48644L21.8664 19.5405C21.9539 19.6884 22 19.8562 22 20.027C22 20.1978 21.9539 20.3656 21.8664 20.5135C21.7788 20.6614 21.6529 20.7842 21.5013 20.8696C21.3496 20.955 21.1776 21 21.0025 21H1.99751C1.82241 21 1.65039 20.955 1.49875 20.8696C1.34711 20.7842 1.22119 20.6614 1.13364 20.5135C1.04609 20.3656 0.999999 20.1978 1 20.027C1 19.8562 1.04609 19.6884 1.13364 19.5405L10.6361 3.48644C10.7237 3.33855 10.8496 3.21573 11.0013 3.13034C11.1529 3.04495 11.3249 3 11.5 3C11.6751 3 11.8471 3.04495 11.9987 3.13034C12.1504 3.21573 12.2763 3.33855 12.3639 3.48644ZM3.72523 19.054H19.2748L11.5 5.91888L3.72523 19.054ZM10.5025 16.1351H12.4975V18.0811H10.5025V16.1351ZM10.5025 9.3243H12.4975V14.1892H10.5025V9.3243Z" fill="currentColor"/>
</g>
<defs>
<clipPath id="clip0_1641_5150">
<rect width="24" height="24" fill="white"/>
</clipPath>
</defs>
</svg>
