<svg width="120" height="120" viewBox="0 0 120 120" fill="none" xmlns="http://www.w3.org/2000/svg" id="grave">
<path d="M96.5991 91.9101C98.1561 87.2225 101.34 83.2479 105.575 80.7063C106.156 80.3629 106.435 79.672 106.255 79.0218C106.075 78.3709 105.48 77.9214 104.806 77.9261H102.18C98.9996 77.9181 95.8835 78.819 93.1983 80.5223C93.8518 77.3698 95.4168 74.4783 97.6986 72.2075L98.3935 71.5146C98.8829 71.0244 98.9723 70.2622 98.6082 69.6727C98.2441 69.0838 97.5226 68.8217 96.8651 69.0405L96.5217 69.1538V69.1545C91.8867 70.6957 88.1684 74.2062 86.3647 78.7464C86.066 78.3536 85.7226 77.9995 85.3952 77.6321V70.4571C85.3912 69.5334 85.1025 68.6338 84.5676 67.8809C84.0329 67.1279 83.2787 66.5584 82.4079 66.2503V27.1359C82.4059 25.1558 81.6184 23.2572 80.2181 21.8568C78.8178 20.457 76.9201 19.6695 74.9395 19.6667H74.4274C72.281 19.6727 70.2218 18.8191 68.7081 17.2973C66.3997 14.9886 63.2683 13.6914 60.0028 13.6914C56.7381 13.6914 53.6067 14.9885 51.2975 17.2973C49.7825 18.8211 47.7201 19.6747 45.5709 19.6667H45.0588C43.0789 19.6694 41.1805 20.457 39.7802 21.8568C38.3806 23.2572 37.5932 25.1558 37.5904 27.1359V66.2503C36.7196 66.5584 35.9654 67.1279 35.4307 67.8809C34.8959 68.6338 34.6071 69.5334 34.6031 70.4571V77.6275C34.2757 77.9949 33.931 78.349 33.6336 78.7418C31.8279 74.2009 28.107 70.6898 23.4693 69.1499L23.1259 69.0365C22.4684 68.8171 21.7469 69.0792 21.3828 69.6687C21.0187 70.2583 21.1081 71.0205 21.5975 71.51L22.2923 72.2016C24.5742 74.473 26.1392 77.3653 26.7926 80.5177C24.1068 78.8158 20.9907 77.9169 17.8113 77.9261H15.1854C14.5145 77.9261 13.9258 78.3742 13.7464 79.0205C13.567 79.6673 13.8411 80.3542 14.4159 80.7003C18.6509 83.2419 21.8342 87.2165 23.3898 91.9041C20.5858 92.7023 18.1207 94.397 16.3696 96.7284C14.6185 99.0591 13.6776 101.899 13.6916 104.815C13.6916 105.211 13.8489 105.591 14.129 105.871C14.4091 106.151 14.7891 106.309 15.1852 106.309H104.805C105.202 106.309 105.582 106.151 105.862 105.871C106.142 105.591 106.299 105.211 106.299 104.815C106.311 101.9 105.37 99.0611 103.619 96.7309C101.867 94.4014 99.4023 92.7083 96.599 91.91L96.5991 91.9101ZM87.1022 83.8854L87.1029 83.8847C87.7424 83.7887 88.2478 83.2918 88.3545 82.6543C88.772 80.1334 89.8915 77.7813 91.5853 75.8674C90.4484 78.3929 89.8636 81.1318 89.8689 83.9014C89.8689 84.5056 90.2329 85.0498 90.7911 85.2812C91.3492 85.5126 91.9913 85.3846 92.4188 84.9578C94.5026 82.8618 97.2079 81.4953 100.132 81.0632C97.1552 83.8208 94.9373 87.2981 93.6924 91.16C90.7911 88.0023 86.5375 86.4504 82.2838 86.9966C82.0404 83.4501 81.2009 79.9703 79.8013 76.7025C82.2586 78.2663 84.2442 80.469 85.5446 83.0752C85.832 83.6561 86.4622 83.9842 87.103 83.8848L87.1022 83.8854ZM42.9186 77.9261H77.0733C78.3629 80.9197 79.133 84.1114 79.3498 87.3639C77.8455 85.4893 75.8598 84.0588 73.6053 83.2252C71.3508 82.3916 68.9122 82.1862 66.5504 82.6316C62.4709 80.3801 57.5216 80.3801 53.4421 82.6316C51.0802 82.1862 48.6417 82.3909 46.3872 83.2245C44.1327 84.0581 42.1469 85.4893 40.6426 87.3639C40.8593 84.1114 41.6295 80.9198 42.9191 77.9261L42.9186 77.9261ZM45.0591 22.6544H45.5712C48.5106 22.6624 51.3305 21.494 53.403 19.41C55.1514 17.6614 57.5233 16.6791 59.9958 16.6791C62.4683 16.6791 64.8402 17.6614 66.5886 19.41C68.6611 21.494 71.481 22.6624 74.4204 22.6544H74.9325C76.1208 22.6544 77.2611 23.1265 78.1011 23.9668C78.9412 24.8071 79.4134 25.9476 79.4134 27.1358V65.9754H40.578V27.1358C40.578 25.9474 41.0501 24.807 41.8903 23.9668C42.7305 23.1267 43.8708 22.6544 45.0589 22.6544H45.0591ZM39.0844 68.9631H80.9072C81.3033 68.9631 81.6834 69.1205 81.9634 69.4006C82.2435 69.6807 82.4009 70.0608 82.4009 70.457V74.8891C81.1186 73.9434 79.7228 73.1626 78.2473 72.563L76.9803 72.0568C76.3848 71.8188 75.704 71.9875 75.2886 72.4763C74.8725 72.9651 74.8158 73.664 75.1459 74.2143L75.3326 74.5237C75.4133 74.6597 75.482 74.8018 75.5627 74.9392L44.4294 74.9385C44.5088 74.8025 44.5788 74.6604 44.6581 74.525L44.8449 74.2143C45.1749 73.6641 45.1183 72.9652 44.7022 72.4763C44.2867 71.9875 43.6059 71.8187 43.0104 72.0568L41.7435 72.565C40.2672 73.1625 38.8715 73.9435 37.5899 74.8891V70.4569C37.5899 69.632 38.2587 68.9631 39.0836 68.9631L39.0844 68.9631ZM19.8596 81.0631C22.7836 81.4953 25.4889 82.8617 27.5727 84.9577C28.0002 85.3845 28.6423 85.5125 29.2004 85.2811C29.7586 85.0497 30.1226 84.5055 30.1226 83.9013C30.128 81.1317 29.5425 78.3928 28.405 75.8673C30.1001 77.7799 31.2203 80.1326 31.6371 82.6542C31.7438 83.2917 32.2493 83.7886 32.8887 83.8846C33.5296 83.9866 34.1617 83.6579 34.4471 83.075C35.7474 80.4687 37.7325 78.2654 40.1905 76.7022C38.7908 79.9701 37.9513 83.4497 37.7079 86.9963C33.4543 86.4502 29.2006 88.002 26.2993 91.1598C25.0544 87.2972 22.8373 83.82 19.8598 81.063L19.8596 81.0631ZM16.7842 103.322C17.1262 100.886 18.3212 98.6499 20.157 97.012C21.992 95.3741 24.3493 94.4405 26.8078 94.377C27.2459 94.3637 27.656 94.1589 27.93 93.8168C29.371 92.0029 31.3756 90.7204 33.6267 90.1729C35.8772 89.6254 38.2463 89.8428 40.3601 90.7918C41.0349 91.0932 41.8285 90.8558 42.2273 90.2329C43.3709 88.399 45.0625 86.9713 47.063 86.1523C49.0628 85.3334 51.2701 85.164 53.3718 85.6695C53.7552 85.7568 54.158 85.6888 54.492 85.4814C56.1491 84.4677 58.0535 83.9316 59.9959 83.9316C61.9384 83.9316 63.8428 84.4677 65.4998 85.4814C65.8345 85.6881 66.2366 85.7555 66.62 85.6695C68.7225 85.164 70.9304 85.3334 72.9315 86.1523C74.9327 86.9712 76.6258 88.399 77.7707 90.2329C78.1694 90.8558 78.963 91.0932 79.6379 90.7918C81.751 89.8428 84.1209 89.6254 86.3713 90.1729C88.6226 90.7204 90.627 92.0029 92.0679 93.8168C92.342 94.1589 92.7521 94.3637 93.1902 94.377C95.648 94.4417 98.0032 95.376 99.8376 97.0138C101.672 98.6517 102.866 100.887 103.208 103.322L16.7842 103.322Z" fill="#F9F6F0"/>
<path d="M69.2618 88.5909V91.4902C70.4151 91.4902 71.5218 91.9484 72.3371 92.7639C73.1524 93.5793 73.6107 94.686 73.6107 95.8391H76.51C76.5075 93.9176 75.7431 92.0752 74.3847 90.7161C73.0257 89.3577 71.1832 88.5935 69.2617 88.5908L69.2618 88.5909Z" fill="#F9F6F0"/>
<path d="M83.7589 92.6178V95.5171C84.9121 95.5171 86.0189 95.9753 86.8341 96.7907C87.6494 97.6062 88.1078 98.7129 88.1078 99.866H91.0071C91.0045 97.9445 90.2402 96.102 88.8818 94.743C87.5228 93.3846 85.6803 92.6203 83.7588 92.6177L83.7589 92.6178Z" fill="#F9F6F0"/>
<path d="M43.4903 95.8391H46.3896C46.3896 94.6858 46.8478 93.5791 47.6633 92.7638C48.4787 91.9485 49.5855 91.4901 50.7386 91.4901V88.5908C48.817 88.5934 46.9746 89.3577 45.6155 90.7161C44.2571 92.0752 43.4929 93.9176 43.4902 95.8391L43.4903 95.8391Z" fill="#F9F6F0"/>
<path d="M28.9932 99.8659H31.8926C31.8926 98.7127 32.3508 97.6059 33.1662 96.7906C33.9817 95.9754 35.0884 95.517 36.2415 95.517V92.6177C34.32 92.6203 32.4775 93.3846 31.1185 94.743C29.76 96.102 28.9958 97.9445 28.9932 99.866L28.9932 99.8659Z" fill="#F9F6F0"/>
<path d="M44.9911 58.7921H75.0095C75.4075 58.7921 75.7894 58.634 76.0708 58.3526C76.3522 58.0711 76.5104 57.6892 76.5104 57.2912V27.2729C76.5104 26.8749 76.3522 26.4929 76.0708 26.2115C75.7894 25.9301 75.4075 25.772 75.0095 25.772H44.9911C44.1623 25.772 43.4902 26.444 43.4902 27.2729V57.2912C43.4902 57.6892 43.6484 58.0711 43.9298 58.3526C44.2112 58.634 44.5931 58.7921 44.9911 58.7921ZM46.4921 28.7738H73.5085V55.7903H46.4921V28.7738Z" fill="#F9F6F0"/>
<path d="M52.3496 31.4097H67.6516V34.6311H52.3496V31.4097Z" fill="#F9F6F0"/>
<path d="M49.9326 37.8525H70.8722V41.074H49.9326V37.8525Z" fill="#F9F6F0"/>
<path d="M49.9326 43.4902H70.8722V46.7117H49.9326V43.4902Z" fill="#F9F6F0"/>
<path d="M49.9326 49.9331H70.8722V53.1546H49.9326V49.9331Z" fill="#F9F6F0"/>
</svg>
