<svg width="24" height="24" viewBox="0 0 24 24" fill="none" xmlns="http://www.w3.org/2000/svg" id="home">
<g clip-path="url(#clip0_1691_3454)">
<path d="M13 18.9715H19V9.82072L12 4.29904L5 9.82072V18.9715H11V12.8858H13V18.9715ZM21 19.9857C21 20.2547 20.8946 20.5127 20.7071 20.7029C20.5196 20.8931 20.2652 21 20 21H4C3.73478 21 3.48043 20.8931 3.29289 20.7029C3.10536 20.5127 3 20.2547 3 19.9857V9.32576C2.99989 9.1712 3.03462 9.01865 3.10152 8.87978C3.16841 8.74091 3.26572 8.61939 3.386 8.52448L11.386 2.2137C11.5615 2.0752 11.7776 2 12 2C12.2224 2 12.4385 2.0752 12.614 2.2137L20.614 8.52448C20.7343 8.61939 20.8316 8.74091 20.8985 8.87978C20.9654 9.01865 21.0001 9.1712 21 9.32576V19.9857Z" fill="currentColor"/>
</g>
<defs>
<clipPath id="clip0_1691_3454">
<rect width="24" height="24" fill="white"/>
</clipPath>
</defs>
</svg>
