<svg width="70" height="70" viewBox="0 0 70 70" fill="none" xmlns="http://www.w3.org/2000/svg" id="paperAdd">
<g clip-path="url(#clip0_1703_2965)">
<path d="M43.75 11.6666H14.5833V58.3333H55.4167V23.3333H43.75V11.6666ZM8.75 8.72659C8.75 7.12825 10.0538 5.83325 11.6638 5.83325H46.6667L61.25 20.4166V61.2295C61.2527 61.6125 61.1799 61.9923 61.0358 62.3472C60.8917 62.7021 60.6791 63.0252 60.4102 63.2979C60.1412 63.5706 59.8212 63.7877 59.4684 63.9368C59.1155 64.0858 58.7368 64.1639 58.3538 64.1666H11.6463C10.8803 64.1613 10.1471 63.8548 9.60522 63.3134C9.0633 62.7721 8.75611 62.0392 8.75 61.2733V8.72659ZM32.0833 32.0833V23.3333H37.9167V32.0833H46.6667V37.9166H37.9167V46.6666H32.0833V37.9166H23.3333V32.0833H32.0833Z" fill="currentColor"/>
</g>
</svg>
