<svg width="70" height="70" viewBox="0 0 70 70" fill="none" xmlns="http://www.w3.org/2000/svg" id="paperBig">
<path d="M20.4167 17.4999V8.74992C20.4167 7.97637 20.724 7.2345 21.2709 6.68752C21.8179 6.14054 22.5598 5.83325 23.3333 5.83325H58.3333C59.1069 5.83325 59.8488 6.14054 60.3957 6.68752C60.9427 7.2345 61.25 7.97637 61.25 8.74992V49.5833C61.25 50.3568 60.9427 51.0987 60.3957 51.6457C59.8488 52.1926 59.1069 52.4999 58.3333 52.4999H49.5833V61.2499C49.5833 62.8599 48.2708 64.1666 46.6463 64.1666H11.6871C11.3025 64.1689 10.9212 64.0952 10.5651 63.9497C10.2091 63.8042 9.88526 63.5897 9.61234 63.3187C9.33941 63.0477 9.12273 62.7254 8.97474 62.3704C8.82675 62.0153 8.75038 61.6346 8.75 61.2499L8.75875 20.4166C8.75875 18.8066 10.0712 17.4999 11.6929 17.4999H20.4167ZM14.5892 23.3333L14.5833 58.3333H43.75V23.3333H14.5892ZM26.25 17.4999H49.5833V46.6666H55.4167V11.6666H26.25V17.4999ZM20.4167 32.0833H37.9167V37.9166H20.4167V32.0833ZM20.4167 43.7499H37.9167V49.5833H20.4167V43.7499Z" fill="currentColor"/>
</svg>
