<svg width="24" height="24" viewBox="0 0 24 24" fill="none" xmlns="http://www.w3.org/2000/svg" id="settings">>
<g clip-path="url(#clip0_1691_3476)">
<path d="M2.964 16.9991C2.54732 16.2682 2.22342 15.4868 2 14.6735C2.48624 14.4227 2.8946 14.0403 3.17989 13.5686C3.46518 13.097 3.61629 12.5545 3.61649 12.0011C3.61669 11.4478 3.46599 10.9051 3.18105 10.4333C2.8961 9.96141 2.48803 9.5787 2.00197 9.32747C2.44753 7.69325 3.2959 6.20098 4.46716 4.99124C4.92461 5.29292 5.45542 5.46032 6.00086 5.47494C6.5463 5.48956 7.08508 5.35081 7.5576 5.07406C8.03011 4.79731 8.41792 4.39335 8.67812 3.90688C8.93831 3.42041 9.06074 2.8704 9.03185 2.31772C10.6505 1.89342 12.3489 1.89411 13.9672 2.31972C13.9385 2.87239 14.0612 3.42231 14.3216 3.90865C14.582 4.39498 14.97 4.79875 15.4426 5.07529C15.9152 5.35183 16.454 5.49034 16.9994 5.47551C17.5448 5.46068 18.0755 5.29307 18.5328 4.99124C19.1035 5.58114 19.6102 6.25202 20.036 7.00089C20.4628 7.74975 20.7822 8.53062 21 9.32648C20.5138 9.57733 20.1054 9.95974 19.8201 10.4314C19.5348 10.903 19.3837 11.4455 19.3835 11.9989C19.3833 12.5522 19.534 13.0949 19.819 13.5667C20.1039 14.0386 20.512 14.4213 20.998 14.6725C20.5525 16.3067 19.7041 17.799 18.5328 19.0088C18.0754 18.7071 17.5446 18.5397 16.9991 18.5251C16.4537 18.5104 15.9149 18.6492 15.4424 18.9259C14.9699 19.2027 14.5821 19.6066 14.3219 20.0931C14.0617 20.5796 13.9393 21.1296 13.9681 21.6823C12.3495 22.1066 10.6511 22.1059 9.03284 21.6803C9.06147 21.1276 8.9388 20.5777 8.67841 20.0914C8.41801 19.605 8.03005 19.2012 7.55744 18.9247C7.08484 18.6482 6.54602 18.5097 6.00061 18.5245C5.45521 18.5393 4.92448 18.7069 4.46716 19.0088C3.88461 18.4058 3.37955 17.7306 2.964 16.9991ZM8.54295 17.1951C9.59332 17.8096 10.3831 18.7958 10.7607 19.9646C11.2526 20.0116 11.7464 20.0126 12.2383 19.9656C12.6162 18.7966 13.4063 17.8104 14.457 17.1961C15.507 16.5799 16.7443 16.3787 17.9316 16.6312C18.2174 16.2232 18.4638 15.7883 18.6689 15.3334C17.86 14.417 17.4132 13.23 17.4141 12C17.4141 10.7402 17.8774 9.56343 18.6689 8.66659C18.4624 8.21182 18.2149 7.77738 17.9296 7.36882C16.7431 7.62109 15.5066 7.42029 14.457 6.80492C13.4067 6.1904 12.6169 5.20419 12.2393 4.03541C11.7474 3.98842 11.2536 3.98742 10.7617 4.03441C10.3838 5.20335 9.5937 6.18959 8.54295 6.80392C7.49299 7.42013 6.25566 7.6213 5.06843 7.36882C4.78314 7.77704 4.53629 8.21154 4.33114 8.66659C5.13996 9.58299 5.58678 10.77 5.58591 12C5.58591 13.2598 5.12264 14.4366 4.33114 15.3334C4.53761 15.7882 4.78508 16.2226 5.0704 16.6312C6.25688 16.3789 7.49341 16.5797 8.54295 17.1951ZM11.5 14.9995C10.7157 14.9995 9.96361 14.6835 9.40905 14.1209C8.8545 13.5584 8.54295 12.7955 8.54295 12C8.54295 11.2045 8.8545 10.4416 9.40905 9.87906C9.96361 9.31655 10.7157 9.00053 11.5 9.00053C12.2843 9.00053 13.0364 9.31655 13.5909 9.87906C14.1455 10.4416 14.457 11.2045 14.457 12C14.457 12.7955 14.1455 13.5584 13.5909 14.1209C13.0364 14.6835 12.2843 14.9995 11.5 14.9995ZM11.5 12.9998C11.7614 12.9998 12.0121 12.8945 12.197 12.707C12.3818 12.5195 12.4857 12.2652 12.4857 12C12.4857 11.7348 12.3818 11.4805 12.197 11.293C12.0121 11.1055 11.7614 11.0002 11.5 11.0002C11.2386 11.0002 10.9879 11.1055 10.803 11.293C10.6182 11.4805 10.5143 11.7348 10.5143 12C10.5143 12.2652 10.6182 12.5195 10.803 12.707C10.9879 12.8945 11.2386 12.9998 11.5 12.9998Z" fill="currentColor"/>
</g>
<defs>
<clipPath id="clip0_1691_3476">
<rect width="24" height="24" fill="white"/>
</clipPath>
</defs>
</svg>
